<svg width="16" height="16" viewBox="0 0 16 16" fill="none" xmlns="http://www.w3.org/2000/svg">
<path fill-rule="evenodd" clip-rule="evenodd" d="M8 16C12.4183 16 16 12.4183 16 8C16 3.58172 12.4183 0 8 0C3.58172 0 0 3.58172 0 8C0 12.4183 3.58172 16 8 16ZM11.7071 7.29289L8.7071 4.29289C8.3166 3.90237 7.68342 3.90237 7.29289 4.29289C6.90237 4.68342 6.90237 5.31658 7.29289 5.70711L8.5858 7H5C4.44772 7 4 7.44771 4 8C4 8.5523 4.44772 9 5 9H8.5858L7.29289 10.2929C6.90237 10.6834 6.90237 11.3166 7.29289 11.7071C7.68342 12.0976 8.3166 12.0976 8.7071 11.7071L11.7071 8.7071C12.0976 8.3166 12.0976 7.68342 11.7071 7.29289Z" fill="white"/>
</svg>
